<svg id="visual" viewBox="0 0 900 600" width="900" height="600" xmlns="http://www.w3.org/2000/svg" xmlns:xlink="http://www.w3.org/1999/xlink" version="1.1"><path d="M0 79L21.5 75C43 71 86 63 128.8 62.2C171.7 61.3 214.3 67.7 257.2 72.3C300 77 343 80 385.8 82.5C428.7 85 471.3 87 514.2 78.2C557 69.3 600 49.7 642.8 40C685.7 30.3 728.3 30.7 771.2 32.3C814 34 857 37 878.5 38.5L900 40L900 0L878.5 0C857 0 814 0 771.2 0C728.3 0 685.7 0 642.8 0C600 0 557 0 514.2 0C471.3 0 428.7 0 385.8 0C343 0 300 0 257.2 0C214.3 0 171.7 0 128.8 0C86 0 43 0 21.5 0L0 0Z" fill="#ffffff" stroke-linecap="round" stroke-linejoin="miter"></path></svg>