<svg xmlns="http://www.w3.org/2000/svg" xmlns:xlink="http://www.w3.org/1999/xlink" width="1366" zoomAndPan="magnify" viewBox="0 0 1024.5 576" height="768" preserveAspectRatio="xMidYMid meet" version="1.0"><defs><clipPath id="cae6f56fc6"><path d="M 0 0.140625 L 1024 0.140625 L 1024 575.859375 L 0 575.859375 Z M 0 0.140625 " clip-rule="nonzero"/></clipPath><clipPath id="156b2b966a"><path d="M 0 0.140625 L 532.195312 0.140625 L 532.195312 575.859375 L 0 575.859375 Z M 0 0.140625 " clip-rule="nonzero"/></clipPath><clipPath id="61d4dc1166"><path d="M 0 65.425781 L 198.304688 65.425781 L 198.304688 535.449219 L 0 535.449219 Z M 0 65.425781 " clip-rule="nonzero"/></clipPath></defs><g clip-path="url(#cae6f56fc6)"><path fill="#ffffff" d="M 0 0.140625 L 1024 0.140625 L 1024 575.859375 L 0 575.859375 Z M 0 0.140625 " fill-opacity="1" fill-rule="nonzero"/><path fill="#ffffff" d="M 0 0.140625 L 1024 0.140625 L 1024 575.859375 L 0 575.859375 Z M 0 0.140625 " fill-opacity="1" fill-rule="nonzero"/></g><g clip-path="url(#156b2b966a)"><path fill="#ff914d" d="M 39.441406 -204.867188 C 31.375 -204.867188 23.308594 -204.667969 15.25 -204.273438 C 7.191406 -203.875 -0.851562 -203.28125 -8.882812 -202.492188 C -16.910156 -201.699219 -24.917969 -200.714844 -32.898438 -199.53125 C -40.878906 -198.34375 -48.824219 -196.964844 -56.738281 -195.390625 C -64.652344 -193.820312 -72.523438 -192.050781 -80.351562 -190.089844 C -88.175781 -188.128906 -95.949219 -185.980469 -103.671875 -183.636719 C -111.390625 -181.292969 -119.050781 -178.765625 -126.648438 -176.046875 C -134.246094 -173.328125 -141.769531 -170.425781 -149.226562 -167.335938 C -156.679688 -164.25 -164.054688 -160.980469 -171.347656 -157.53125 C -178.640625 -154.082031 -185.84375 -150.453125 -192.960938 -146.652344 C -200.078125 -142.847656 -207.09375 -138.871094 -214.015625 -134.722656 C -220.9375 -130.578125 -227.75 -126.261719 -234.460938 -121.777344 C -241.167969 -117.296875 -247.761719 -112.652344 -254.242188 -107.84375 C -260.722656 -103.039062 -267.082031 -98.074219 -273.320312 -92.957031 C -279.558594 -87.839844 -285.664062 -82.570312 -291.644531 -77.152344 C -297.621094 -71.734375 -303.464844 -66.171875 -309.167969 -60.464844 C -314.875 -54.761719 -320.4375 -48.917969 -325.855469 -42.941406 C -331.273438 -36.960938 -336.542969 -30.855469 -341.660156 -24.617188 C -346.777344 -18.378906 -351.742188 -12.023438 -356.546875 -5.542969 C -361.355469 0.941406 -366 7.535156 -370.480469 14.242188 C -374.964844 20.953125 -379.277344 27.765625 -383.425781 34.6875 C -387.574219 41.609375 -391.550781 48.625 -395.355469 55.742188 C -399.15625 62.855469 -402.785156 70.0625 -406.234375 77.355469 C -409.683594 84.648438 -412.953125 92.023438 -416.039062 99.476562 C -419.128906 106.933594 -422.03125 114.457031 -424.75 122.054688 C -427.46875 129.652344 -429.996094 137.308594 -432.339844 145.03125 C -434.679688 152.753906 -436.832031 160.527344 -438.792969 168.351562 C -440.753906 176.179688 -442.519531 184.050781 -444.09375 191.964844 C -445.667969 199.875 -447.046875 207.824219 -448.230469 215.804688 C -449.417969 223.785156 -450.402344 231.792969 -451.195312 239.820312 C -451.984375 247.851562 -452.578125 255.894531 -452.972656 263.953125 C -453.371094 272.011719 -453.566406 280.078125 -453.566406 288.144531 C -453.566406 296.214844 -453.371094 304.277344 -452.972656 312.335938 C -452.578125 320.394531 -451.984375 328.4375 -451.195312 336.46875 C -450.402344 344.5 -449.417969 352.503906 -448.230469 360.484375 C -447.046875 368.464844 -445.667969 376.414062 -444.09375 384.328125 C -442.519531 392.238281 -440.753906 400.109375 -438.792969 407.9375 C -436.832031 415.761719 -434.679688 423.539062 -432.339844 431.257812 C -429.996094 438.980469 -427.46875 446.636719 -424.75 454.234375 C -422.03125 461.832031 -419.128906 469.359375 -416.039062 476.8125 C -412.953125 484.265625 -409.683594 491.640625 -406.234375 498.933594 C -402.785156 506.226562 -399.15625 513.433594 -395.355469 520.546875 C -391.550781 527.664062 -387.574219 534.683594 -383.425781 541.601562 C -379.277344 548.523438 -374.964844 555.339844 -370.480469 562.046875 C -366 568.753906 -361.355469 575.351562 -356.546875 581.832031 C -351.742188 588.3125 -346.777344 594.671875 -341.660156 600.90625 C -336.542969 607.144531 -331.273438 613.253906 -325.855469 619.230469 C -320.4375 625.207031 -314.875 631.050781 -309.167969 636.757812 C -303.464844 642.460938 -297.621094 648.023438 -291.644531 653.441406 C -285.664062 658.859375 -279.558594 664.128906 -273.320312 669.246094 C -267.082031 674.367188 -260.722656 679.328125 -254.242188 684.132812 C -247.761719 688.941406 -241.167969 693.585938 -234.460938 698.066406 C -227.75 702.550781 -220.9375 706.867188 -214.015625 711.015625 C -207.09375 715.160156 -200.078125 719.136719 -192.960938 722.941406 C -185.84375 726.746094 -178.640625 730.371094 -171.347656 733.820312 C -164.054688 737.269531 -156.679688 740.539062 -149.226562 743.628906 C -141.769531 746.714844 -134.246094 749.617188 -126.648438 752.335938 C -119.050781 755.054688 -111.390625 757.585938 -103.671875 759.925781 C -95.949219 762.269531 -88.175781 764.417969 -80.351562 766.378906 C -72.523438 768.339844 -64.652344 770.109375 -56.738281 771.683594 C -48.824219 773.257812 -40.878906 774.636719 -32.898438 775.820312 C -24.917969 777.003906 -16.910156 777.992188 -8.882812 778.78125 C -0.851562 779.570312 7.191406 780.164062 15.25 780.5625 C 23.308594 780.957031 31.375 781.15625 39.441406 781.15625 C 47.511719 781.15625 55.574219 780.957031 63.632812 780.5625 C 71.691406 780.164062 79.734375 779.570312 87.765625 778.78125 C 95.796875 777.992188 103.800781 777.003906 111.78125 775.820312 C 119.761719 774.636719 127.710938 773.257812 135.625 771.683594 C 143.539062 770.109375 151.40625 768.339844 159.234375 766.378906 C 167.0625 764.417969 174.835938 762.269531 182.554688 759.925781 C 190.277344 757.585938 197.933594 755.054688 205.53125 752.335938 C 213.128906 749.617188 220.65625 746.714844 228.109375 743.628906 C 235.5625 740.539062 242.9375 737.269531 250.230469 733.820312 C 257.523438 730.371094 264.730469 726.746094 271.84375 722.941406 C 278.960938 719.136719 285.980469 715.160156 292.898438 711.015625 C 299.820312 706.867188 306.636719 702.550781 313.34375 698.066406 C 320.054688 693.585938 326.648438 688.941406 333.128906 684.132812 C 339.609375 679.328125 345.96875 674.367188 352.203125 669.246094 C 358.441406 664.128906 364.550781 658.859375 370.527344 653.441406 C 376.507812 648.023438 382.347656 642.460938 388.054688 636.757812 C 393.757812 631.050781 399.320312 625.207031 404.738281 619.230469 C 410.15625 613.253906 415.425781 607.144531 420.542969 600.90625 C 425.664062 594.671875 430.625 588.3125 435.433594 581.832031 C 440.238281 575.351562 444.882812 568.753906 449.367188 562.046875 C 453.847656 555.339844 458.164062 548.523438 462.3125 541.601562 C 466.460938 534.683594 470.433594 527.664062 474.238281 520.546875 C 478.042969 513.433594 481.667969 506.226562 485.117188 498.933594 C 488.566406 491.640625 491.835938 484.265625 494.925781 476.8125 C 498.011719 469.359375 500.914062 461.832031 503.632812 454.234375 C 506.351562 446.636719 508.882812 438.980469 511.222656 431.257812 C 513.566406 423.539062 515.71875 415.761719 517.675781 407.9375 C 519.636719 400.109375 521.40625 392.238281 522.980469 384.328125 C 524.554688 376.414062 525.933594 368.464844 527.117188 360.484375 C 528.300781 352.503906 529.289062 344.5 530.078125 336.46875 C 530.871094 328.4375 531.460938 320.394531 531.859375 312.335938 C 532.253906 304.277344 532.453125 296.214844 532.453125 288.144531 C 532.453125 280.078125 532.253906 272.011719 531.859375 263.953125 C 531.460938 255.894531 530.871094 247.851562 530.078125 239.820312 C 529.289062 231.792969 528.300781 223.785156 527.117188 215.804688 C 525.933594 207.824219 524.554688 199.875 522.980469 191.964844 C 521.40625 184.050781 519.636719 176.179688 517.675781 168.351562 C 515.71875 160.527344 513.566406 152.753906 511.222656 145.03125 C 508.882812 137.308594 506.351562 129.652344 503.632812 122.054688 C 500.914062 114.457031 498.011719 106.933594 494.925781 99.476562 C 491.835938 92.023438 488.566406 84.648438 485.117188 77.355469 C 481.667969 70.0625 478.042969 62.855469 474.238281 55.742188 C 470.433594 48.625 466.460938 41.609375 462.3125 34.6875 C 458.164062 27.765625 453.847656 20.953125 449.363281 14.242188 C 444.882812 7.535156 440.238281 0.941406 435.433594 -5.542969 C 430.625 -12.023438 425.664062 -18.378906 420.542969 -24.617188 C 415.425781 -30.855469 410.15625 -36.960938 404.738281 -42.941406 C 399.320312 -48.917969 393.757812 -54.761719 388.054688 -60.464844 C 382.347656 -66.171875 376.507812 -71.734375 370.527344 -77.152344 C 364.550781 -82.570312 358.441406 -87.839844 352.203125 -92.957031 C 345.96875 -98.074219 339.609375 -103.039062 333.128906 -107.84375 C 326.648438 -112.652344 320.054688 -117.296875 313.34375 -121.777344 C 306.636719 -126.261719 299.820312 -130.578125 292.898438 -134.722656 C 285.980469 -138.871094 278.960938 -142.847656 271.84375 -146.652344 C 264.730469 -150.453125 257.523438 -154.082031 250.230469 -157.53125 C 242.9375 -160.980469 235.5625 -164.25 228.109375 -167.335938 C 220.65625 -170.425781 213.128906 -173.328125 205.53125 -176.046875 C 197.933594 -178.765625 190.277344 -181.292969 182.554688 -183.636719 C 174.835938 -185.980469 167.058594 -188.128906 159.234375 -190.089844 C 151.40625 -192.050781 143.539062 -193.816406 135.625 -195.390625 C 127.710938 -196.964844 119.761719 -198.34375 111.78125 -199.53125 C 103.800781 -200.714844 95.796875 -201.699219 87.765625 -202.492188 C 79.734375 -203.28125 71.691406 -203.875 63.632812 -204.273438 C 55.574219 -204.667969 47.511719 -204.867188 39.441406 -204.867188 Z M 39.441406 -7.660156 C 44.285156 -7.660156 49.121094 -7.542969 53.957031 -7.304688 C 58.792969 -7.066406 63.617188 -6.710938 68.4375 -6.238281 C 73.253906 -5.761719 78.058594 -5.171875 82.847656 -4.460938 C 87.632812 -3.75 92.402344 -2.921875 97.152344 -1.976562 C 101.898438 -1.03125 106.621094 0.0273438 111.316406 1.203125 C 116.011719 2.378906 120.675781 3.671875 125.308594 5.074219 C 129.941406 6.480469 134.539062 8 139.097656 9.628906 C 143.65625 11.261719 148.167969 13.003906 152.640625 14.855469 C 157.113281 16.707031 161.539062 18.667969 165.914062 20.738281 C 170.292969 22.808594 174.613281 24.984375 178.882812 27.265625 C 183.152344 29.550781 187.363281 31.933594 191.515625 34.421875 C 195.667969 36.914062 199.757812 39.5 203.78125 42.191406 C 207.808594 44.878906 211.765625 47.667969 215.652344 50.550781 C 219.542969 53.433594 223.355469 56.414062 227.101562 59.484375 C 230.84375 62.554688 234.507812 65.714844 238.09375 68.96875 C 241.679688 72.21875 245.1875 75.554688 248.609375 78.976562 C 252.03125 82.402344 255.367188 85.90625 258.621094 89.492188 C 261.871094 93.082031 265.03125 96.746094 268.101562 100.488281 C 271.175781 104.230469 274.152344 108.042969 277.035156 111.933594 C 279.917969 115.820312 282.707031 119.777344 285.394531 123.804688 C 288.085938 127.828125 290.675781 131.917969 293.164062 136.070312 C 295.652344 140.222656 298.039062 144.433594 300.320312 148.703125 C 302.601562 152.972656 304.777344 157.296875 306.847656 161.671875 C 308.917969 166.046875 310.878906 170.472656 312.730469 174.945312 C 314.582031 179.417969 316.324219 183.933594 317.957031 188.492188 C 319.585938 193.050781 321.105469 197.644531 322.511719 202.277344 C 323.917969 206.910156 325.207031 211.574219 326.382812 216.269531 C 327.558594 220.964844 328.621094 225.6875 329.566406 230.4375 C 330.507812 235.183594 331.335938 239.953125 332.046875 244.742188 C 332.757812 249.53125 333.347656 254.332031 333.824219 259.152344 C 334.296875 263.96875 334.65625 268.796875 334.890625 273.628906 C 335.128906 278.464844 335.25 283.304688 335.25 288.144531 C 335.25 292.984375 335.128906 297.824219 334.890625 302.660156 C 334.65625 307.496094 334.296875 312.320312 333.824219 317.140625 C 333.347656 321.957031 332.757812 326.761719 332.046875 331.546875 C 331.335938 336.335938 330.507812 341.105469 329.566406 345.855469 C 328.621094 350.601562 327.558594 355.324219 326.382812 360.019531 C 325.207031 364.714844 323.917969 369.378906 322.511719 374.011719 C 321.105469 378.644531 319.585938 383.242188 317.957031 387.800781 C 316.324219 392.355469 314.585938 396.871094 312.730469 401.34375 C 310.878906 405.816406 308.917969 410.242188 306.847656 414.617188 C 304.777344 418.996094 302.601562 423.316406 300.320312 427.585938 C 298.039062 431.855469 295.652344 436.066406 293.164062 440.21875 C 290.675781 444.371094 288.085938 448.460938 285.394531 452.484375 C 282.707031 456.511719 279.917969 460.46875 277.035156 464.355469 C 274.152344 468.246094 271.175781 472.058594 268.101562 475.800781 C 265.03125 479.542969 261.871094 483.210938 258.621094 486.796875 C 255.367188 490.382812 252.03125 493.886719 248.609375 497.3125 C 245.1875 500.734375 241.679688 504.070312 238.09375 507.324219 C 234.507812 510.574219 230.84375 513.734375 227.101562 516.804688 C 223.355469 519.878906 219.542969 522.855469 215.652344 525.738281 C 211.765625 528.621094 207.808594 531.410156 203.785156 534.097656 C 199.757812 536.789062 195.667969 539.378906 191.515625 541.867188 C 187.363281 544.355469 183.152344 546.742188 178.882812 549.023438 C 174.613281 551.304688 170.292969 553.480469 165.914062 555.550781 C 161.539062 557.621094 157.113281 559.582031 152.640625 561.433594 C 148.167969 563.285156 143.65625 565.027344 139.097656 566.660156 C 134.539062 568.289062 129.941406 569.808594 125.308594 571.214844 C 120.675781 572.617188 116.011719 573.910156 111.316406 575.085938 C 106.621094 576.261719 101.898438 577.324219 97.152344 578.265625 C 92.402344 579.210938 87.632812 580.039062 82.847656 580.75 C 78.058594 581.460938 73.253906 582.050781 68.4375 582.527344 C 63.617188 583 58.792969 583.355469 53.957031 583.59375 C 49.121094 583.832031 44.285156 583.949219 39.441406 583.949219 C 34.601562 583.949219 29.761719 583.832031 24.925781 583.59375 C 20.09375 583.355469 15.265625 583 10.449219 582.527344 C 5.628906 582.050781 0.828125 581.460938 -3.960938 580.75 C -8.75 580.039062 -13.519531 579.210938 -18.265625 578.265625 C -23.015625 577.324219 -27.738281 576.261719 -32.433594 575.085938 C -37.128906 573.910156 -41.792969 572.617188 -46.425781 571.214844 C -51.058594 569.808594 -55.652344 568.289062 -60.210938 566.660156 C -64.769531 565.027344 -69.285156 563.285156 -73.757812 561.433594 C -78.230469 559.582031 -82.65625 557.621094 -87.03125 555.550781 C -91.40625 553.480469 -95.730469 551.304688 -100 549.023438 C -104.269531 546.742188 -108.480469 544.355469 -112.632812 541.867188 C -116.785156 539.378906 -120.875 536.789062 -124.898438 534.097656 C -128.925781 531.410156 -132.882812 528.621094 -136.769531 525.738281 C -140.65625 522.855469 -144.472656 519.878906 -148.214844 516.804688 C -151.957031 513.734375 -155.621094 510.574219 -159.210938 507.324219 C -162.796875 504.070312 -166.300781 500.734375 -169.722656 497.3125 C -173.148438 493.886719 -176.484375 490.382812 -179.734375 486.796875 C -182.988281 483.210938 -186.148438 479.542969 -189.21875 475.800781 C -192.289062 472.058594 -195.269531 468.246094 -198.152344 464.355469 C -201.035156 460.46875 -203.820312 456.511719 -206.511719 452.484375 C -209.203125 448.460938 -211.789062 444.371094 -214.28125 440.21875 C -216.769531 436.066406 -219.152344 431.855469 -221.4375 427.585938 C -223.71875 423.316406 -225.894531 418.996094 -227.964844 414.617188 C -230.035156 410.242188 -231.996094 405.816406 -233.847656 401.34375 C -235.699219 396.871094 -237.441406 392.355469 -239.074219 387.800781 C -240.703125 383.242188 -242.222656 378.644531 -243.625 374.011719 C -245.03125 369.378906 -246.324219 364.714844 -247.5 360.019531 C -248.675781 355.324219 -249.734375 350.601562 -250.679688 345.855469 C -251.625 341.105469 -252.453125 336.335938 -253.164062 331.546875 C -253.871094 326.761719 -254.464844 321.957031 -254.941406 317.140625 C -255.414062 312.320312 -255.769531 307.496094 -256.007812 302.660156 C -256.246094 297.824219 -256.363281 292.984375 -256.363281 288.144531 C -256.363281 283.304688 -256.246094 278.464844 -256.007812 273.628906 C -255.769531 268.796875 -255.414062 263.96875 -254.941406 259.152344 C -254.464844 254.332031 -253.871094 249.53125 -253.164062 244.742188 C -252.453125 239.953125 -251.625 235.183594 -250.679688 230.4375 C -249.734375 225.6875 -248.675781 220.964844 -247.5 216.269531 C -246.324219 211.574219 -245.03125 206.910156 -243.625 202.277344 C -242.222656 197.644531 -240.703125 193.050781 -239.074219 188.492188 C -237.441406 183.933594 -235.699219 179.417969 -233.847656 174.945312 C -231.996094 170.472656 -230.035156 166.046875 -227.964844 161.671875 C -225.894531 157.296875 -223.71875 152.972656 -221.4375 148.703125 C -219.152344 144.433594 -216.769531 140.222656 -214.28125 136.070312 C -211.789062 131.917969 -209.203125 127.828125 -206.511719 123.804688 C -203.820312 119.777344 -201.035156 115.820312 -198.152344 111.933594 C -195.269531 108.046875 -192.289062 104.230469 -189.21875 100.488281 C -186.148438 96.746094 -182.988281 93.082031 -179.734375 89.492188 C -176.484375 85.90625 -173.148438 82.402344 -169.722656 78.976562 C -166.300781 75.554688 -162.796875 72.21875 -159.210938 68.96875 C -155.621094 65.714844 -151.957031 62.554688 -148.214844 59.484375 C -144.472656 56.414062 -140.65625 53.433594 -136.769531 50.550781 C -132.882812 47.667969 -128.925781 44.878906 -124.898438 42.191406 C -120.875 39.5 -116.785156 36.914062 -112.632812 34.421875 C -108.480469 31.933594 -104.269531 29.550781 -100 27.265625 C -95.730469 24.984375 -91.40625 22.808594 -87.03125 20.738281 C -82.65625 18.667969 -78.230469 16.707031 -73.757812 14.855469 C -69.285156 13.003906 -64.769531 11.261719 -60.210938 9.628906 C -55.652344 8 -51.058594 6.480469 -46.425781 5.074219 C -41.792969 3.671875 -37.128906 2.378906 -32.433594 1.203125 C -27.738281 0.0273438 -23.015625 -1.03125 -18.265625 -1.976562 C -13.519531 -2.921875 -8.75 -3.75 -3.960938 -4.460938 C 0.828125 -5.171875 5.628906 -5.761719 10.449219 -6.238281 C 15.265625 -6.710938 20.09375 -7.066406 24.925781 -7.304688 C 29.761719 -7.542969 34.601562 -7.660156 39.441406 -7.660156 Z M 39.441406 -7.660156 " fill-opacity="1" fill-rule="nonzero"/></g><g clip-path="url(#61d4dc1166)"><path fill="#ff914d" d="M -36.5 65.425781 C -40.351562 65.425781 -44.195312 65.519531 -48.042969 65.707031 C -51.886719 65.894531 -55.722656 66.179688 -59.554688 66.558594 C -63.386719 66.933594 -67.207031 67.40625 -71.011719 67.96875 C -74.820312 68.535156 -78.613281 69.191406 -82.386719 69.945312 C -86.164062 70.695312 -89.917969 71.539062 -93.652344 72.472656 C -97.386719 73.410156 -101.09375 74.433594 -104.777344 75.550781 C -108.460938 76.667969 -112.117188 77.875 -115.742188 79.171875 C -119.367188 80.46875 -122.957031 81.855469 -126.511719 83.328125 C -130.070312 84.800781 -133.585938 86.359375 -137.066406 88.007812 C -140.546875 89.652344 -143.984375 91.382812 -147.378906 93.199219 C -150.773438 95.011719 -154.121094 96.910156 -157.425781 98.886719 C -160.726562 100.867188 -163.976562 102.925781 -167.175781 105.066406 C -170.378906 107.203125 -173.523438 109.417969 -176.617188 111.710938 C -179.707031 114.003906 -182.742188 116.371094 -185.71875 118.816406 C -188.695312 121.257812 -191.609375 123.769531 -194.460938 126.355469 C -197.3125 128.941406 -200.097656 131.59375 -202.820312 134.316406 C -205.542969 137.039062 -208.195312 139.824219 -210.78125 142.679688 C -213.367188 145.53125 -215.878906 148.445312 -218.324219 151.417969 C -220.765625 154.394531 -223.132812 157.429688 -225.425781 160.519531 C -227.71875 163.613281 -229.933594 166.757812 -232.074219 169.960938 C -234.210938 173.160156 -236.269531 176.410156 -238.25 179.714844 C -240.226562 183.015625 -242.125 186.363281 -243.941406 189.757812 C -245.753906 193.152344 -247.484375 196.589844 -249.128906 200.070312 C -250.777344 203.550781 -252.335938 207.070312 -253.808594 210.625 C -255.28125 214.179688 -256.667969 217.773438 -257.964844 221.394531 C -259.261719 225.019531 -260.46875 228.675781 -261.585938 232.359375 C -262.703125 236.042969 -263.730469 239.75 -264.664062 243.484375 C -265.601562 247.21875 -266.441406 250.972656 -267.195312 254.75 C -267.945312 258.523438 -268.601562 262.316406 -269.167969 266.125 C -269.734375 269.933594 -270.203125 273.75 -270.582031 277.582031 C -270.957031 281.414062 -271.242188 285.25 -271.429688 289.097656 C -271.617188 292.941406 -271.714844 296.789062 -271.714844 300.636719 C -271.714844 304.488281 -271.617188 308.332031 -271.429688 312.179688 C -271.242188 316.023438 -270.957031 319.863281 -270.582031 323.691406 C -270.203125 327.523438 -269.734375 331.34375 -269.167969 335.148438 C -268.601562 338.957031 -267.945312 342.75 -267.195312 346.523438 C -266.441406 350.300781 -265.601562 354.054688 -264.664062 357.789062 C -263.730469 361.523438 -262.703125 365.234375 -261.585938 368.917969 C -260.46875 372.601562 -259.261719 376.253906 -257.964844 379.878906 C -256.667969 383.503906 -255.28125 387.09375 -253.808594 390.648438 C -252.335938 394.207031 -250.777344 397.722656 -249.128906 401.203125 C -247.484375 404.683594 -245.753906 408.121094 -243.941406 411.515625 C -242.125 414.910156 -240.226562 418.257812 -238.25 421.5625 C -236.269531 424.863281 -234.210938 428.113281 -232.074219 431.316406 C -229.933594 434.515625 -227.71875 437.660156 -225.425781 440.753906 C -223.132812 443.84375 -220.765625 446.878906 -218.324219 449.855469 C -215.878906 452.832031 -213.367188 455.746094 -210.78125 458.597656 C -208.195312 461.449219 -205.542969 464.234375 -202.820312 466.957031 C -200.097656 469.679688 -197.3125 472.332031 -194.460938 474.917969 C -191.609375 477.503906 -188.695312 480.015625 -185.71875 482.460938 C -182.742188 484.902344 -179.707031 487.269531 -176.617188 489.5625 C -173.523438 491.855469 -170.378906 494.070312 -167.175781 496.210938 C -163.976562 498.347656 -160.726562 500.40625 -157.425781 502.386719 C -154.121094 504.367188 -150.773438 506.261719 -147.378906 508.078125 C -143.984375 509.890625 -140.546875 511.621094 -137.066406 513.265625 C -133.585938 514.914062 -130.070312 516.472656 -126.511719 517.945312 C -122.957031 519.417969 -119.367188 520.804688 -115.742188 522.101562 C -112.117188 523.398438 -108.460938 524.605469 -104.777344 525.722656 C -101.09375 526.839844 -97.386719 527.867188 -93.652344 528.800781 C -89.917969 529.738281 -86.164062 530.578125 -82.386719 531.332031 C -78.613281 532.082031 -74.820312 532.738281 -71.011719 533.304688 C -67.207031 533.871094 -63.386719 534.339844 -59.554688 534.71875 C -55.722656 535.09375 -51.886719 535.378906 -48.042969 535.566406 C -44.195312 535.757812 -40.351562 535.851562 -36.5 535.851562 C -32.652344 535.851562 -28.804688 535.757812 -24.957031 535.566406 C -21.113281 535.378906 -17.277344 535.09375 -13.445312 534.71875 C -9.613281 534.339844 -5.796875 533.871094 -1.988281 533.304688 C 1.820312 532.738281 5.613281 532.082031 9.386719 531.332031 C 13.164062 530.578125 16.917969 529.738281 20.652344 528.800781 C 24.386719 527.867188 28.09375 526.839844 31.777344 525.722656 C 35.460938 524.605469 39.117188 523.398438 42.742188 522.101562 C 46.363281 520.804688 49.957031 519.417969 53.511719 517.945312 C 57.070312 516.472656 60.585938 514.914062 64.066406 513.265625 C 67.546875 511.621094 70.984375 509.890625 74.378906 508.078125 C 77.773438 506.261719 81.121094 504.367188 84.421875 502.386719 C 87.726562 500.40625 90.976562 498.347656 94.175781 496.210938 C 97.378906 494.070312 100.523438 491.855469 103.617188 489.5625 C 106.707031 487.269531 109.742188 484.902344 112.71875 482.460938 C 115.691406 480.015625 118.605469 477.503906 121.460938 474.917969 C 124.3125 472.332031 127.097656 469.679688 129.820312 466.957031 C 132.542969 464.234375 135.195312 461.449219 137.78125 458.597656 C 140.367188 455.746094 142.878906 452.832031 145.320312 449.855469 C 147.765625 446.878906 150.132812 443.84375 152.425781 440.753906 C 154.71875 437.660156 156.933594 434.515625 159.074219 431.316406 C 161.210938 428.113281 163.269531 424.863281 165.25 421.5625 C 167.226562 418.257812 169.125 414.910156 170.9375 411.515625 C 172.753906 408.121094 174.484375 404.683594 176.128906 401.203125 C 177.777344 397.722656 179.335938 394.207031 180.808594 390.648438 C 182.28125 387.09375 183.667969 383.503906 184.964844 379.878906 C 186.261719 376.253906 187.46875 372.601562 188.585938 368.917969 C 189.703125 365.234375 190.730469 361.523438 191.664062 357.789062 C 192.597656 354.054688 193.441406 350.300781 194.195312 346.523438 C 194.945312 342.75 195.601562 338.957031 196.167969 335.148438 C 196.730469 331.34375 197.203125 327.523438 197.582031 323.691406 C 197.957031 319.863281 198.242188 316.023438 198.429688 312.179688 C 198.617188 308.332031 198.714844 304.488281 198.714844 300.636719 C 198.714844 296.789062 198.617188 292.941406 198.429688 289.097656 C 198.242188 285.25 197.957031 281.414062 197.582031 277.582031 C 197.203125 273.75 196.730469 269.933594 196.167969 266.125 C 195.601562 262.316406 194.945312 258.523438 194.195312 254.75 C 193.441406 250.972656 192.597656 247.21875 191.664062 243.484375 C 190.730469 239.75 189.703125 236.042969 188.585938 232.359375 C 187.46875 228.675781 186.261719 225.019531 184.964844 221.394531 C 183.667969 217.773438 182.28125 214.179688 180.808594 210.625 C 179.335938 207.070312 177.777344 203.550781 176.128906 200.070312 C 174.484375 196.589844 172.753906 193.152344 170.9375 189.757812 C 169.125 186.363281 167.226562 183.015625 165.25 179.714844 C 163.269531 176.410156 161.210938 173.160156 159.074219 169.960938 C 156.933594 166.757812 154.71875 163.613281 152.425781 160.519531 C 150.132812 157.429688 147.765625 154.394531 145.320312 151.417969 C 142.878906 148.445312 140.367188 145.53125 137.78125 142.679688 C 135.195312 139.824219 132.542969 137.039062 129.820312 134.316406 C 127.097656 131.59375 124.3125 128.941406 121.460938 126.355469 C 118.605469 123.769531 115.691406 121.257812 112.71875 118.816406 C 109.742188 116.371094 106.707031 114.003906 103.617188 111.710938 C 100.523438 109.417969 97.378906 107.203125 94.175781 105.066406 C 90.976562 102.925781 87.726562 100.867188 84.421875 98.886719 C 81.121094 96.910156 77.773438 95.011719 74.378906 93.199219 C 70.984375 91.382812 67.546875 89.652344 64.066406 88.007812 C 60.585938 86.359375 57.066406 84.800781 53.511719 83.328125 C 49.957031 81.855469 46.363281 80.46875 42.742188 79.171875 C 39.117188 77.875 35.460938 76.667969 31.777344 75.550781 C 28.09375 74.433594 24.386719 73.410156 20.652344 72.472656 C 16.917969 71.539062 13.164062 70.695312 9.386719 69.945312 C 5.613281 69.191406 1.820312 68.535156 -1.988281 67.96875 C -5.796875 67.40625 -9.613281 66.933594 -13.445312 66.558594 C -17.277344 66.179688 -21.113281 65.894531 -24.957031 65.707031 C -28.804688 65.519531 -32.652344 65.425781 -36.5 65.425781 Z M -36.5 159.507812 C -34.191406 159.507812 -31.882812 159.566406 -29.574219 159.679688 C -27.269531 159.792969 -24.964844 159.960938 -22.667969 160.1875 C -20.367188 160.414062 -18.078125 160.699219 -15.792969 161.035156 C -13.507812 161.375 -11.234375 161.769531 -8.96875 162.222656 C -6.703125 162.671875 -4.449219 163.175781 -2.210938 163.738281 C 0.03125 164.300781 2.257812 164.914062 4.46875 165.585938 C 6.675781 166.257812 8.871094 166.980469 11.042969 167.757812 C 13.21875 168.539062 15.375 169.367188 17.507812 170.253906 C 19.640625 171.136719 21.75 172.070312 23.839844 173.058594 C 25.925781 174.046875 27.988281 175.085938 30.027344 176.171875 C 32.0625 177.261719 34.074219 178.402344 36.054688 179.585938 C 38.035156 180.773438 39.984375 182.011719 41.90625 183.292969 C 43.828125 184.578125 45.714844 185.90625 47.570312 187.28125 C 49.425781 188.65625 51.246094 190.078125 53.03125 191.542969 C 54.816406 193.007812 56.5625 194.515625 58.277344 196.070312 C 59.988281 197.621094 61.660156 199.210938 63.292969 200.84375 C 64.925781 202.476562 66.515625 204.148438 68.070312 205.863281 C 69.621094 207.574219 71.128906 209.320312 72.59375 211.105469 C 74.058594 212.890625 75.480469 214.710938 76.855469 216.566406 C 78.230469 218.421875 79.558594 220.308594 80.84375 222.230469 C 82.125 224.152344 83.363281 226.101562 84.550781 228.082031 C 85.738281 230.0625 86.875 232.074219 87.964844 234.109375 C 89.050781 236.148438 90.089844 238.210938 91.078125 240.296875 C 92.066406 242.386719 93 244.496094 93.886719 246.628906 C 94.769531 248.765625 95.601562 250.917969 96.378906 253.09375 C 97.15625 255.265625 97.878906 257.460938 98.550781 259.671875 C 99.222656 261.878906 99.835938 264.105469 100.398438 266.347656 C 100.960938 268.585938 101.464844 270.839844 101.914062 273.105469 C 102.367188 275.371094 102.761719 277.644531 103.101562 279.929688 C 103.4375 282.214844 103.722656 284.503906 103.949219 286.804688 C 104.175781 289.101562 104.34375 291.40625 104.457031 293.710938 C 104.570312 296.019531 104.628906 298.328125 104.628906 300.636719 C 104.628906 302.945312 104.570312 305.253906 104.457031 307.5625 C 104.34375 309.867188 104.175781 312.171875 103.949219 314.46875 C 103.722656 316.769531 103.4375 319.058594 103.101562 321.34375 C 102.761719 323.628906 102.367188 325.90625 101.914062 328.171875 C 101.464844 330.433594 100.960938 332.6875 100.398438 334.929688 C 99.835938 337.167969 99.222656 339.394531 98.550781 341.605469 C 97.878906 343.816406 97.15625 346.007812 96.378906 348.183594 C 95.601562 350.355469 94.769531 352.511719 93.886719 354.644531 C 93 356.777344 92.066406 358.890625 91.078125 360.976562 C 90.089844 363.066406 89.050781 365.128906 87.964844 367.164062 C 86.875 369.203125 85.738281 371.210938 84.550781 373.191406 C 83.363281 375.171875 82.125 377.125 80.84375 379.042969 C 79.558594 380.964844 78.230469 382.851562 76.855469 384.707031 C 75.480469 386.5625 74.058594 388.382812 72.59375 390.167969 C 71.128906 391.953125 69.621094 393.703125 68.070312 395.414062 C 66.515625 397.125 64.925781 398.796875 63.292969 400.429688 C 61.660156 402.0625 59.988281 403.65625 58.277344 405.207031 C 56.5625 406.757812 54.816406 408.265625 53.03125 409.730469 C 51.246094 411.195312 49.425781 412.617188 47.570312 413.992188 C 45.714844 415.367188 43.828125 416.699219 41.90625 417.980469 C 39.984375 419.265625 38.035156 420.5 36.054688 421.6875 C 34.074219 422.875 32.0625 424.011719 30.027344 425.101562 C 27.988281 426.191406 25.925781 427.226562 23.839844 428.214844 C 21.75 429.203125 19.640625 430.136719 17.507812 431.023438 C 15.375 431.90625 13.21875 432.738281 11.042969 433.515625 C 8.871094 434.292969 6.675781 435.019531 4.46875 435.6875 C 2.257812 436.359375 0.03125 436.972656 -2.210938 437.535156 C -4.449219 438.097656 -6.703125 438.601562 -8.96875 439.054688 C -11.234375 439.503906 -13.507812 439.898438 -15.792969 440.238281 C -18.078125 440.578125 -20.367188 440.859375 -22.667969 441.085938 C -24.964844 441.3125 -27.269531 441.480469 -29.574219 441.59375 C -31.882812 441.707031 -34.191406 441.765625 -36.5 441.765625 C -38.808594 441.765625 -41.117188 441.707031 -43.425781 441.59375 C -45.730469 441.480469 -48.035156 441.3125 -50.332031 441.085938 C -52.632812 440.859375 -54.921875 440.578125 -57.207031 440.238281 C -59.492188 439.898438 -61.769531 439.503906 -64.03125 439.054688 C -66.296875 438.601562 -68.550781 438.097656 -70.792969 437.535156 C -73.03125 436.972656 -75.257812 436.359375 -77.46875 435.6875 C -79.675781 435.019531 -81.871094 434.292969 -84.042969 433.515625 C -86.21875 432.738281 -88.375 431.90625 -90.507812 431.023438 C -92.640625 430.136719 -94.753906 429.203125 -96.839844 428.214844 C -98.929688 427.226562 -100.992188 426.191406 -103.027344 425.101562 C -105.0625 424.011719 -107.074219 422.875 -109.054688 421.6875 C -111.035156 420.5 -112.988281 419.265625 -114.90625 417.980469 C -116.828125 416.699219 -118.714844 415.367188 -120.570312 413.992188 C -122.425781 412.617188 -124.246094 411.195312 -126.03125 409.730469 C -127.816406 408.265625 -129.566406 406.757812 -131.277344 405.207031 C -132.988281 403.65625 -134.660156 402.0625 -136.292969 400.429688 C -137.925781 398.796875 -139.519531 397.125 -141.070312 395.414062 C -142.621094 393.703125 -144.128906 391.953125 -145.59375 390.167969 C -147.058594 388.382812 -148.480469 386.5625 -149.855469 384.707031 C -151.230469 382.851562 -152.5625 380.964844 -153.84375 379.042969 C -155.128906 377.125 -156.363281 375.171875 -157.550781 373.191406 C -158.738281 371.210938 -159.875 369.203125 -160.964844 367.164062 C -162.054688 365.128906 -163.089844 363.066406 -164.078125 360.976562 C -165.066406 358.890625 -166 356.777344 -166.886719 354.644531 C -167.769531 352.511719 -168.601562 350.355469 -169.378906 348.183594 C -170.15625 346.007812 -170.878906 343.816406 -171.550781 341.605469 C -172.222656 339.394531 -172.835938 337.167969 -173.398438 334.929688 C -173.960938 332.6875 -174.464844 330.433594 -174.917969 328.171875 C -175.367188 325.90625 -175.761719 323.628906 -176.101562 321.34375 C -176.441406 319.058594 -176.722656 316.769531 -176.949219 314.46875 C -177.175781 312.171875 -177.34375 309.867188 -177.457031 307.5625 C -177.570312 305.253906 -177.628906 302.945312 -177.628906 300.636719 C -177.628906 298.328125 -177.570312 296.019531 -177.457031 293.710938 C -177.34375 291.40625 -177.175781 289.101562 -176.949219 286.804688 C -176.722656 284.503906 -176.441406 282.214844 -176.101562 279.929688 C -175.761719 277.644531 -175.367188 275.371094 -174.917969 273.105469 C -174.464844 270.839844 -173.960938 268.585938 -173.398438 266.347656 C -172.835938 264.105469 -172.222656 261.878906 -171.550781 259.671875 C -170.878906 257.460938 -170.15625 255.265625 -169.378906 253.09375 C -168.601562 250.917969 -167.769531 248.765625 -166.886719 246.628906 C -166 244.496094 -165.066406 242.386719 -164.078125 240.296875 C -163.089844 238.210938 -162.054688 236.148438 -160.964844 234.109375 C -159.875 232.074219 -158.738281 230.0625 -157.550781 228.082031 C -156.363281 226.101562 -155.128906 224.152344 -153.84375 222.230469 C -152.5625 220.308594 -151.230469 218.421875 -149.855469 216.566406 C -148.480469 214.710938 -147.058594 212.890625 -145.59375 211.105469 C -144.128906 209.320312 -142.621094 207.574219 -141.070312 205.863281 C -139.519531 204.148438 -137.925781 202.476562 -136.292969 200.84375 C -134.660156 199.210938 -132.988281 197.621094 -131.277344 196.070312 C -129.566406 194.515625 -127.816406 193.007812 -126.03125 191.542969 C -124.246094 190.078125 -122.425781 188.65625 -120.570312 187.28125 C -118.714844 185.90625 -116.828125 184.578125 -114.90625 183.292969 C -112.988281 182.011719 -111.035156 180.773438 -109.054688 179.585938 C -107.074219 178.402344 -105.0625 177.261719 -103.027344 176.171875 C -100.992188 175.085938 -98.929688 174.046875 -96.839844 173.058594 C -94.753906 172.070312 -92.640625 171.136719 -90.507812 170.253906 C -88.375 169.367188 -86.21875 168.539062 -84.042969 167.757812 C -81.871094 166.980469 -79.675781 166.257812 -77.46875 165.585938 C -75.257812 164.914062 -73.03125 164.300781 -70.792969 163.738281 C -68.550781 163.175781 -66.296875 162.671875 -64.03125 162.222656 C -61.769531 161.769531 -59.492188 161.375 -57.207031 161.035156 C -54.921875 160.699219 -52.632812 160.414062 -50.332031 160.1875 C -48.035156 159.960938 -45.730469 159.792969 -43.425781 159.679688 C -41.117188 159.566406 -38.808594 159.507812 -36.5 159.507812 Z M -36.5 159.507812 " fill-opacity="1" fill-rule="nonzero"/></g></svg>